<svg width="2199" height="350" viewBox="0 0 2199 350" fill="none" xmlns="http://www.w3.org/2000/svg">
<path d="M653.316 335V53H704.516V170.6H849.716V53H900.916V335H849.716V213.4H704.516V335H653.316ZM1022.29 339C1008.16 339 995.491 336.333 984.291 331C973.357 325.4 964.691 317.933 958.291 308.6C952.157 299.267 949.091 288.733 949.091 277C949.091 262.6 952.824 251.267 960.291 243C967.757 234.467 979.891 228.333 996.691 224.6C1013.49 220.867 1036.02 219 1064.29 219H1084.29V247.8H1064.69C1052.16 247.8 1041.62 248.333 1033.09 249.4C1024.56 250.2 1017.62 251.667 1012.29 253.8C1007.22 255.667 1003.49 258.333 1001.09 261.8C998.957 265.267 997.891 269.533 997.891 274.6C997.891 283.4 1000.96 290.6 1007.09 296.2C1013.22 301.8 1021.76 304.6 1032.69 304.6C1041.49 304.6 1049.22 302.6 1055.89 298.6C1062.82 294.333 1068.29 288.6 1072.29 281.4C1076.29 274.2 1078.29 265.933 1078.29 256.6V210.6C1078.29 197.267 1075.36 187.667 1069.49 181.8C1063.62 175.933 1053.76 173 1039.89 173C1028.96 173 1017.76 174.733 1006.29 178.2C994.824 181.4 983.224 186.467 971.491 193.4L957.091 159.4C964.024 154.6 972.157 150.467 981.491 147C991.091 143.267 1001.09 140.467 1011.49 138.6C1022.16 136.467 1032.16 135.4 1041.49 135.4C1060.69 135.4 1076.42 138.333 1088.69 144.2C1101.22 150.067 1110.56 159 1116.69 171C1122.82 182.733 1125.89 197.933 1125.89 216.6V335H1079.09V293.4H1082.29C1080.42 302.733 1076.69 310.867 1071.09 317.8C1065.76 324.467 1058.96 329.667 1050.69 333.4C1042.42 337.133 1032.96 339 1022.29 339ZM1267.04 339C1246.51 339 1228.64 334.867 1213.44 326.6C1198.24 318.067 1186.51 306.067 1178.24 290.6C1169.97 275.133 1165.84 257 1165.84 236.2C1165.84 215.4 1169.97 197.533 1178.24 182.6C1186.51 167.4 1198.24 155.8 1213.44 147.8C1228.64 139.533 1246.51 135.4 1267.04 135.4C1279.57 135.4 1291.97 137.4 1304.24 141.4C1316.51 145.4 1326.64 151 1334.64 158.2L1319.84 193C1312.91 186.867 1305.04 182.2 1296.24 179C1287.71 175.8 1279.44 174.2 1271.44 174.2C1254.11 174.2 1240.64 179.667 1231.04 190.6C1221.71 201.267 1217.04 216.6 1217.04 236.6C1217.04 256.333 1221.71 271.933 1231.04 283.4C1240.64 294.6 1254.11 300.2 1271.44 300.2C1279.17 300.2 1287.44 298.6 1296.24 295.4C1305.04 292.2 1312.91 287.4 1319.84 281L1334.64 316.2C1326.64 323.133 1316.37 328.733 1303.84 333C1291.57 337 1279.31 339 1267.04 339ZM1365.31 335V53H1415.31V222.6H1416.11L1494.91 139.4H1555.31L1456.91 243.4V222.6L1560.91 335H1499.71L1416.11 247.8H1415.31V335H1365.31ZM1789.58 339C1774.91 339 1760.78 337.667 1747.18 335C1733.84 332.6 1721.44 329 1709.98 324.2C1698.78 319.4 1688.78 313.667 1679.98 307L1695.58 266.6C1704.38 272.733 1713.58 278.067 1723.18 282.6C1733.04 286.867 1743.44 290.2 1754.38 292.6C1765.58 294.733 1777.31 295.8 1789.58 295.8C1810.64 295.8 1825.98 292.333 1835.58 285.4C1845.18 278.2 1849.98 269 1849.98 257.8C1849.98 251.667 1848.51 246.467 1845.58 242.2C1842.64 237.667 1837.84 233.8 1831.18 230.6C1824.51 227.4 1815.71 224.733 1804.78 222.6L1760.78 213.4C1735.44 208.067 1716.51 199.133 1703.98 186.6C1691.71 173.8 1685.58 157 1685.58 136.2C1685.58 118.6 1690.24 103.267 1699.58 90.2C1708.91 77.1333 1721.84 67 1738.38 59.8C1754.91 52.6 1773.98 49 1795.58 49C1808.38 49 1820.64 50.3333 1832.38 53C1844.38 55.4 1855.31 59.1333 1865.18 64.2C1875.31 69 1884.11 74.8667 1891.58 81.8L1875.98 120.2C1864.78 110.867 1852.51 103.933 1839.18 99.4C1825.84 94.6 1811.18 92.2 1795.18 92.2C1782.91 92.2 1772.38 93.9333 1763.58 97.4C1754.78 100.867 1747.98 105.8 1743.18 112.2C1738.64 118.333 1736.38 125.667 1736.38 134.2C1736.38 143.8 1739.58 151.533 1745.98 157.4C1752.38 163 1763.31 167.4 1778.78 170.6L1822.38 179.8C1848.78 185.4 1868.38 194.2 1881.18 206.2C1894.24 218.2 1900.78 234.2 1900.78 254.2C1900.78 271 1896.24 285.8 1887.18 298.6C1878.11 311.4 1865.18 321.4 1848.38 328.6C1831.84 335.533 1812.24 339 1789.58 339ZM2030.04 335L1904.44 53H1959.24L2061.24 289.4H2044.04L2145.64 53H2198.44L2072.84 335H2030.04Z" fill="#00CCFF"/>
<path fill-rule="evenodd" clip-rule="evenodd" d="M55.5346 163.794C56.9576 157.731 57.6691 150.599 57.6691 142.397C57.6691 133.838 56.9576 126.706 55.5346 121H2.17164C0.748634 126.706 0.03713 133.838 0.03713 142.397C0.03713 150.599 0.748634 157.731 2.17164 163.794H55.5346Z" fill="#00CCFF"/>
<path fill-rule="evenodd" clip-rule="evenodd" d="M108.937 185.191C110.36 179.128 111.071 171.996 111.071 163.794C111.071 155.235 110.36 148.103 108.937 142.397H55.5737C54.1507 148.103 53.4392 155.235 53.4392 163.794C53.4392 171.996 54.1507 179.128 55.5737 185.191H108.937Z" fill="#00CCFF"/>
<path fill-rule="evenodd" clip-rule="evenodd" d="M162.339 206.587C163.762 200.525 164.473 193.393 164.473 185.191C164.473 176.632 163.762 169.5 162.339 163.794H108.976C107.553 169.5 106.841 176.632 106.841 185.191C106.841 193.393 107.553 200.525 108.976 206.587H162.339Z" fill="#00CCFF"/>
<path fill-rule="evenodd" clip-rule="evenodd" d="M215.741 227.984C217.164 221.922 217.875 214.79 217.875 206.587C217.875 198.029 217.164 190.896 215.741 185.191H162.378C160.955 190.896 160.243 198.029 160.243 206.587C160.243 214.79 160.955 221.922 162.378 227.984H215.741Z" fill="#00CCFF"/>
<path fill-rule="evenodd" clip-rule="evenodd" d="M269.143 249.381C270.566 243.319 271.277 236.186 271.277 227.984C271.277 219.426 270.566 212.293 269.143 206.587H215.78C214.357 212.293 213.645 219.426 213.645 227.984C213.645 236.186 214.357 243.319 215.78 249.381H269.143Z" fill="#00CCFF"/>
<path fill-rule="evenodd" clip-rule="evenodd" d="M215.731 270.785C217.154 264.723 217.866 257.591 217.866 249.389C217.866 240.83 217.154 233.697 215.731 227.992H162.368C160.945 233.697 160.234 240.83 160.234 249.389C160.234 257.591 160.945 264.723 162.368 270.785H215.731Z" fill="#00CCFF"/>
<path fill-rule="evenodd" clip-rule="evenodd" d="M162.32 292.191C163.743 286.128 164.455 278.996 164.455 270.794C164.455 262.235 163.743 255.103 162.32 249.397H108.957C107.534 255.103 106.823 262.235 106.823 270.794C106.823 278.996 107.534 286.128 108.957 292.191H162.32Z" fill="#00CCFF"/>
<path fill-rule="evenodd" clip-rule="evenodd" d="M108.909 313.595C110.332 307.533 111.043 300.401 111.043 292.198C111.043 283.64 110.332 276.507 108.909 270.802H55.5458C54.1228 276.507 53.4113 283.64 53.4113 292.198C53.4113 300.401 54.1228 307.533 55.5458 313.595H108.909Z" fill="#00CCFF"/>
<path fill-rule="evenodd" clip-rule="evenodd" d="M55.4974 335C56.9204 328.938 57.6319 321.805 57.6319 313.603C57.6319 305.044 56.9204 297.912 55.4974 292.206H2.13451C0.711504 297.912 0 305.044 0 313.603C0 321.805 0.711504 328.938 2.13451 335H55.4974Z" fill="#00CCFF"/>
<path fill-rule="evenodd" clip-rule="evenodd" d="M493.865 335C495.288 328.938 496 321.805 496 313.603C496 305.044 495.288 297.912 493.865 292.206H440.503C439.08 297.912 438.368 305.044 438.368 313.603C438.368 321.805 439.08 328.938 440.503 335H493.865Z" fill="#00CCFF"/>
</svg>
