<svg width="455" height="294" viewBox="0 0 455 294" fill="none" xmlns="http://www.w3.org/2000/svg">
<rect x="10" y="10" width="423" height="274" rx="6" fill="white"/>
<rect x="10" y="10" width="423" height="274" rx="6" stroke="black" stroke-width="4"/>
<path d="M99.2982 46.4067C99.8315 48.5401 100.098 51.2067 100.098 54.4067C100.098 57.4734 99.8315 60.1401 99.2982 62.4067C99.8315 64.5401 100.098 67.2067 100.098 70.4067C100.098 73.4734 99.8315 76.1401 99.2982 78.4067C99.8315 80.5401 100.098 83.2067 100.098 86.4067C100.098 89.4734 99.8315 92.1401 99.2982 94.4067C99.8315 96.5401 100.098 99.2067 100.098 102.407C100.098 105.473 99.8315 108.14 99.2982 110.407C99.8315 112.54 100.098 115.207 100.098 118.407C100.098 121.473 99.8315 124.14 99.2982 126.407C99.8315 128.54 100.098 131.207 100.098 134.407C100.098 137.473 99.8315 140.14 99.2982 142.407H83.2982C82.7648 140.14 82.4982 137.473 82.4982 134.407C82.4982 131.207 82.7648 128.54 83.2982 126.407C82.7648 124.14 82.4982 121.473 82.4982 118.407C82.4982 115.207 82.7648 112.54 83.2982 110.407C82.7648 108.14 82.4982 105.473 82.4982 102.407C82.4982 99.2067 82.7648 96.5401 83.2982 94.4067H51.2982C51.8315 96.5401 52.0982 99.2067 52.0982 102.407C52.0982 105.473 51.8315 108.14 51.2982 110.407C51.8315 112.54 52.0982 115.207 52.0982 118.407C52.0982 121.473 51.8315 124.14 51.2982 126.407C51.8315 128.54 52.0982 131.207 52.0982 134.407C52.0982 137.473 51.8315 140.14 51.2982 142.407H35.2982C34.7648 140.14 34.4982 137.473 34.4982 134.407C34.4982 131.207 34.7648 128.54 35.2982 126.407C34.7648 124.14 34.4982 121.473 34.4982 118.407C34.4982 115.207 34.7648 112.54 35.2982 110.407C34.7648 108.14 34.4982 105.473 34.4982 102.407C34.4982 99.2067 34.7648 96.5401 35.2982 94.4067C34.7648 92.1401 34.4982 89.4734 34.4982 86.4067C34.4982 83.2067 34.7648 80.5401 35.2982 78.4067C34.7648 76.1401 34.4982 73.4734 34.4982 70.4067C34.4982 67.2067 34.7648 64.5401 35.2982 62.4067C34.7648 60.1401 34.4982 57.4734 34.4982 54.4067C34.4982 51.2067 34.7648 48.5401 35.2982 46.4067C34.7648 44.1401 34.4982 41.4734 34.4982 38.4067C34.4982 35.2067 34.7648 32.5401 35.2982 30.4067H51.2982C51.8315 32.5401 52.0982 35.2067 52.0982 38.4067C52.0982 41.4734 51.8315 44.1401 51.2982 46.4067C51.8315 48.5401 52.0982 51.2067 52.0982 54.4067C52.0982 57.4734 51.8315 60.1401 51.2982 62.4067C51.8315 64.5401 52.0982 67.2067 52.0982 70.4067C52.0982 73.4734 51.8315 76.1401 51.2982 78.4067H83.2982C82.7648 76.1401 82.4982 73.4734 82.4982 70.4067C82.4982 67.2067 82.7648 64.5401 83.2982 62.4067C82.7648 60.1401 82.4982 57.4734 82.4982 54.4067C82.4982 51.2067 82.7648 48.5401 83.2982 46.4067C82.7648 44.1401 82.4982 41.4734 82.4982 38.4067C82.4982 35.2067 82.7648 32.5401 83.2982 30.4067H99.2982C99.8315 32.5401 100.098 35.2067 100.098 38.4067C100.098 41.4734 99.8315 44.1401 99.2982 46.4067ZM200.176 118.407C200.176 121.473 199.91 124.14 199.376 126.407C199.91 128.54 200.176 131.207 200.176 134.407C200.176 137.473 199.91 140.14 199.376 142.407H183.376C182.843 140.14 182.576 137.473 182.576 134.407C182.576 131.207 182.843 128.54 183.376 126.407C182.843 124.14 182.576 121.473 182.576 118.407C182.576 115.207 182.843 112.54 183.376 110.407H151.376C151.91 112.54 152.176 115.207 152.176 118.407C152.176 121.473 151.91 124.14 151.376 126.407C151.91 128.54 152.176 131.207 152.176 134.407C152.176 137.473 151.91 140.14 151.376 142.407H135.376C134.843 140.14 134.576 137.473 134.576 134.407C134.576 131.207 134.843 128.54 135.376 126.407C134.843 124.14 134.576 121.473 134.576 118.407C134.576 115.207 134.843 112.54 135.376 110.407H141.376C140.843 108.14 140.576 105.473 140.576 102.407C140.576 99.2067 140.843 96.5401 141.376 94.4067C140.843 92.1401 140.576 89.4734 140.576 86.4067C140.576 83.2067 140.843 80.5401 141.376 78.4067H145.376C144.843 76.1401 144.576 73.4734 144.576 70.4067C144.576 67.2067 144.843 64.5401 145.376 62.4067H151.376C150.843 60.1401 150.576 57.4734 150.576 54.4067C150.576 51.2067 150.843 48.5401 151.376 46.4067H155.376C154.843 44.1401 154.576 41.4734 154.576 38.4067C154.576 35.2067 154.843 32.5401 155.376 30.4067H179.376C179.91 32.5401 180.176 35.2067 180.176 38.4067C180.176 41.4734 179.91 44.1401 179.376 46.4067H183.376C183.91 48.5401 184.176 51.2067 184.176 54.4067C184.176 57.4734 183.91 60.1401 183.376 62.4067H189.376C189.91 64.5401 190.176 67.2067 190.176 70.4067C190.176 73.4734 189.91 76.1401 189.376 78.4067H193.376C193.91 80.5401 194.176 83.2067 194.176 86.4067C194.176 89.4734 193.91 92.1401 193.376 94.4067C193.91 96.5401 194.176 99.2067 194.176 102.407C194.176 105.473 193.91 108.14 193.376 110.407H199.376C199.91 112.54 200.176 115.207 200.176 118.407ZM177.376 94.4067C176.843 92.1401 176.576 89.4734 176.576 86.4067C176.576 83.2067 176.843 80.5401 177.376 78.4067H173.376C172.843 76.1401 172.576 73.4734 172.576 70.4067C172.576 67.2067 172.843 64.5401 173.376 62.4067H161.376C161.91 64.5401 162.176 67.2067 162.176 70.4067C162.176 73.4734 161.91 76.1401 161.376 78.4067H157.376C157.91 80.5401 158.176 83.2067 158.176 86.4067C158.176 89.4734 157.91 92.1401 157.376 94.4067H177.376ZM299.454 110.407C299.988 112.54 300.254 115.207 300.254 118.407C300.254 121.473 299.988 124.14 299.454 126.407H291.454C291.988 128.54 292.254 131.207 292.254 134.407C292.254 137.473 291.988 140.14 291.454 142.407H251.454C250.921 140.14 250.654 137.473 250.654 134.407C250.654 131.207 250.921 128.54 251.454 126.407H243.454C242.921 124.14 242.654 121.473 242.654 118.407C242.654 115.207 242.921 112.54 243.454 110.407H235.454C234.921 108.14 234.654 105.473 234.654 102.407C234.654 99.2067 234.921 96.5401 235.454 94.4067C234.921 92.1401 234.654 89.4734 234.654 86.4067C234.654 83.2067 234.921 80.5401 235.454 78.4067C234.921 76.1401 234.654 73.4734 234.654 70.4067C234.654 67.2067 234.921 64.5401 235.454 62.4067H243.454C242.921 60.1401 242.654 57.4734 242.654 54.4067C242.654 51.2067 242.921 48.5401 243.454 46.4067H251.454C250.921 44.1401 250.654 41.4734 250.654 38.4067C250.654 35.2067 250.921 32.5401 251.454 30.4067H291.454C291.988 32.5401 292.254 35.2067 292.254 38.4067C292.254 41.4734 291.988 44.1401 291.454 46.4067H299.454C299.988 48.5401 300.254 51.2067 300.254 54.4067C300.254 57.4734 299.988 60.1401 299.454 62.4067H283.454C282.921 60.1401 282.654 57.4734 282.654 54.4067C282.654 51.2067 282.921 48.5401 283.454 46.4067H259.454C259.988 48.5401 260.254 51.2067 260.254 54.4067C260.254 57.4734 259.988 60.1401 259.454 62.4067H251.454C251.988 64.5401 252.254 67.2067 252.254 70.4067C252.254 73.4734 251.988 76.1401 251.454 78.4067C251.988 80.5401 252.254 83.2067 252.254 86.4067C252.254 89.4734 251.988 92.1401 251.454 94.4067C251.988 96.5401 252.254 99.2067 252.254 102.407C252.254 105.473 251.988 108.14 251.454 110.407H259.454C259.988 112.54 260.254 115.207 260.254 118.407C260.254 121.473 259.988 124.14 259.454 126.407H283.454C282.921 124.14 282.654 121.473 282.654 118.407C282.654 115.207 282.921 112.54 283.454 110.407H299.454ZM399.533 126.407C400.066 128.54 400.333 131.207 400.333 134.407C400.333 137.473 400.066 140.14 399.533 142.407H383.533C382.999 140.14 382.733 137.473 382.733 134.407C382.733 131.207 382.999 128.54 383.533 126.407H377.533C376.999 124.14 376.733 121.473 376.733 118.407C376.733 115.207 376.999 112.54 377.533 110.407H365.533C364.999 108.14 364.733 105.473 364.733 102.407C364.733 99.2067 364.999 96.5401 365.533 94.4067H351.533C352.066 96.5401 352.333 99.2067 352.333 102.407C352.333 105.473 352.066 108.14 351.533 110.407C352.066 112.54 352.333 115.207 352.333 118.407C352.333 121.473 352.066 124.14 351.533 126.407C352.066 128.54 352.333 131.207 352.333 134.407C352.333 137.473 352.066 140.14 351.533 142.407H335.533C334.999 140.14 334.733 137.473 334.733 134.407C334.733 131.207 334.999 128.54 335.533 126.407C334.999 124.14 334.733 121.473 334.733 118.407C334.733 115.207 334.999 112.54 335.533 110.407C334.999 108.14 334.733 105.473 334.733 102.407C334.733 99.2067 334.999 96.5401 335.533 94.4067C334.999 92.1401 334.733 89.4734 334.733 86.4067C334.733 83.2067 334.999 80.5401 335.533 78.4067C334.999 76.1401 334.733 73.4734 334.733 70.4067C334.733 67.2067 334.999 64.5401 335.533 62.4067C334.999 60.1401 334.733 57.4734 334.733 54.4067C334.733 51.2067 334.999 48.5401 335.533 46.4067C334.999 44.1401 334.733 41.4734 334.733 38.4067C334.733 35.2067 334.999 32.5401 335.533 30.4067H351.533C352.066 32.5401 352.333 35.2067 352.333 38.4067C352.333 41.4734 352.066 44.1401 351.533 46.4067C352.066 48.5401 352.333 51.2067 352.333 54.4067C352.333 57.4734 352.066 60.1401 351.533 62.4067C352.066 64.5401 352.333 67.2067 352.333 70.4067C352.333 73.4734 352.066 76.1401 351.533 78.4067H365.533C364.999 76.1401 364.733 73.4734 364.733 70.4067C364.733 67.2067 364.999 64.5401 365.533 62.4067H377.533C376.999 60.1401 376.733 57.4734 376.733 54.4067C376.733 51.2067 376.999 48.5401 377.533 46.4067H383.533C382.999 44.1401 382.733 41.4734 382.733 38.4067C382.733 35.2067 382.999 32.5401 383.533 30.4067H399.533C400.066 32.5401 400.333 35.2067 400.333 38.4067C400.333 41.4734 400.066 44.1401 399.533 46.4067H393.533C394.066 48.5401 394.333 51.2067 394.333 54.4067C394.333 57.4734 394.066 60.1401 393.533 62.4067H381.533C382.066 64.5401 382.333 67.2067 382.333 70.4067C382.333 73.4734 382.066 76.1401 381.533 78.4067H371.533C372.066 80.5401 372.333 83.2067 372.333 86.4067C372.333 89.4734 372.066 92.1401 371.533 94.4067H381.533C382.066 96.5401 382.333 99.2067 382.333 102.407C382.333 105.473 382.066 108.14 381.533 110.407H393.533C394.066 112.54 394.333 115.207 394.333 118.407C394.333 121.473 394.066 124.14 393.533 126.407H399.533Z" fill="black"/>
<path fill-rule="evenodd" clip-rule="evenodd" d="M55.1886 200C55.7219 197.733 55.9886 195.067 55.9886 192C55.9886 188.8 55.7219 186.133 55.1886 184H35.1886C34.6553 186.133 34.3886 188.8 34.3886 192C34.3886 195.067 34.6553 197.733 35.1886 200H55.1886Z" fill="#00CCFF"/>
<path fill-rule="evenodd" clip-rule="evenodd" d="M75.2033 208C75.7366 205.733 76.0033 203.067 76.0033 200C76.0033 196.8 75.7366 194.133 75.2033 192H55.2033C54.6699 194.133 54.4033 196.8 54.4033 200C54.4033 203.067 54.6699 205.733 55.2033 208H75.2033Z" fill="#00CCFF"/>
<path fill-rule="evenodd" clip-rule="evenodd" d="M95.2179 216C95.7512 213.733 96.0179 211.067 96.0179 208C96.0179 204.8 95.7512 202.133 95.2179 200H75.2179C74.6846 202.133 74.4179 204.8 74.4179 208C74.4179 211.067 74.6846 213.733 75.2179 216H95.2179Z" fill="#00CCFF"/>
<path fill-rule="evenodd" clip-rule="evenodd" d="M115.233 224C115.766 221.733 116.033 219.067 116.033 216C116.033 212.8 115.766 210.133 115.233 208H95.2326C94.6992 210.133 94.4326 212.8 94.4326 216C94.4326 219.067 94.6992 221.733 95.2326 224H115.233Z" fill="#00CCFF"/>
<path fill-rule="evenodd" clip-rule="evenodd" d="M135.247 232C135.781 229.733 136.047 227.067 136.047 224C136.047 220.8 135.781 218.133 135.247 216H115.247C114.714 218.133 114.447 220.8 114.447 224C114.447 227.067 114.714 229.733 115.247 232H135.247Z" fill="#00CCFF"/>
<path fill-rule="evenodd" clip-rule="evenodd" d="M115.229 240.003C115.762 237.736 116.029 235.069 116.029 232.003C116.029 228.803 115.762 226.136 115.229 224.003H95.2291C94.6957 226.136 94.4291 228.803 94.4291 232.003C94.4291 235.069 94.6957 237.736 95.2291 240.003H115.229Z" fill="#00CCFF"/>
<path fill-rule="evenodd" clip-rule="evenodd" d="M95.2109 248.006C95.7443 245.739 96.0109 243.073 96.0109 240.006C96.0109 236.806 95.7443 234.139 95.2109 232.006H75.2109C74.6776 234.139 74.4109 236.806 74.4109 240.006C74.4109 243.073 74.6776 245.739 75.2109 248.006H95.2109Z" fill="#00CCFF"/>
<path fill-rule="evenodd" clip-rule="evenodd" d="M75.1928 256.009C75.7262 253.742 75.9928 251.075 75.9928 248.009C75.9928 244.809 75.7262 242.142 75.1928 240.009H55.1928C54.6595 242.142 54.3928 244.809 54.3928 248.009C54.3928 251.075 54.6595 253.742 55.1928 256.009H75.1928Z" fill="#00CCFF"/>
<path fill-rule="evenodd" clip-rule="evenodd" d="M55.1747 264.012C55.708 261.745 55.9747 259.078 55.9747 256.012C55.9747 252.812 55.708 250.145 55.1747 248.012H35.1747C34.6414 250.145 34.3747 252.812 34.3747 256.012C34.3747 259.078 34.6414 261.745 35.1747 264.012H55.1747Z" fill="#00CCFF"/>
<path d="M300.204 216.121C300.737 218.254 301.004 220.921 301.004 224.121C301.004 227.187 300.737 229.854 300.204 232.121C300.737 234.254 301.004 236.921 301.004 240.121C301.004 243.187 300.737 245.854 300.204 248.121H292.204C292.737 250.254 293.004 252.921 293.004 256.121C293.004 259.187 292.737 261.854 292.204 264.121H244.204C243.671 261.854 243.404 259.187 243.404 256.121C243.404 252.921 243.671 250.254 244.204 248.121H236.204C235.671 245.854 235.404 243.187 235.404 240.121C235.404 236.921 235.671 234.254 236.204 232.121H252.204C252.737 234.254 253.004 236.921 253.004 240.121C253.004 243.187 252.737 245.854 252.204 248.121H284.204C283.671 245.854 283.404 243.187 283.404 240.121C283.404 236.921 283.671 234.254 284.204 232.121C283.671 229.854 283.404 227.187 283.404 224.121C283.404 220.921 283.671 218.254 284.204 216.121H244.204C243.671 213.854 243.404 211.187 243.404 208.121C243.404 204.921 243.671 202.254 244.204 200.121H236.204C235.671 197.854 235.404 195.187 235.404 192.121C235.404 188.921 235.671 186.254 236.204 184.121C235.671 181.854 235.404 179.187 235.404 176.121C235.404 172.921 235.671 170.254 236.204 168.121H244.204C243.671 165.854 243.404 163.187 243.404 160.121C243.404 156.921 243.671 154.254 244.204 152.121H292.204C292.737 154.254 293.004 156.921 293.004 160.121C293.004 163.187 292.737 165.854 292.204 168.121H300.204C300.737 170.254 301.004 172.921 301.004 176.121C301.004 179.187 300.737 181.854 300.204 184.121H284.204C283.671 181.854 283.404 179.187 283.404 176.121C283.404 172.921 283.671 170.254 284.204 168.121H252.204C252.737 170.254 253.004 172.921 253.004 176.121C253.004 179.187 252.737 181.854 252.204 184.121C252.737 186.254 253.004 188.921 253.004 192.121C253.004 195.187 252.737 197.854 252.204 200.121H292.204C292.737 202.254 293.004 204.921 293.004 208.121C293.004 211.187 292.737 213.854 292.204 216.121H300.204ZM400.282 168.121C400.815 170.254 401.082 172.921 401.082 176.121C401.082 179.187 400.815 181.854 400.282 184.121C400.815 186.254 401.082 188.921 401.082 192.121C401.082 195.187 400.815 197.854 400.282 200.121H394.282C394.815 202.254 395.082 204.921 395.082 208.121C395.082 211.187 394.815 213.854 394.282 216.121H388.282C388.815 218.254 389.082 220.921 389.082 224.121C389.082 227.187 388.815 229.854 388.282 232.121H384.282C384.815 234.254 385.082 236.921 385.082 240.121C385.082 243.187 384.815 245.854 384.282 248.121H376.282C376.815 250.254 377.082 252.921 377.082 256.121C377.082 259.187 376.815 261.854 376.282 264.121H360.282C359.749 261.854 359.482 259.187 359.482 256.121C359.482 252.921 359.749 250.254 360.282 248.121H352.282C351.749 245.854 351.482 243.187 351.482 240.121C351.482 236.921 351.749 234.254 352.282 232.121H348.282C347.749 229.854 347.482 227.187 347.482 224.121C347.482 220.921 347.749 218.254 348.282 216.121H342.282C341.749 213.854 341.482 211.187 341.482 208.121C341.482 204.921 341.749 202.254 342.282 200.121H336.282C335.749 197.854 335.482 195.187 335.482 192.121C335.482 188.921 335.749 186.254 336.282 184.121C335.749 181.854 335.482 179.187 335.482 176.121C335.482 172.921 335.749 170.254 336.282 168.121C335.749 165.854 335.482 163.187 335.482 160.121C335.482 156.921 335.749 154.254 336.282 152.121H352.282C352.815 154.254 353.082 156.921 353.082 160.121C353.082 163.187 352.815 165.854 352.282 168.121C352.815 170.254 353.082 172.921 353.082 176.121C353.082 179.187 352.815 181.854 352.282 184.121C352.815 186.254 353.082 188.921 353.082 192.121C353.082 195.187 352.815 197.854 352.282 200.121H358.282C358.815 202.254 359.082 204.921 359.082 208.121C359.082 211.187 358.815 213.854 358.282 216.121H364.282C364.815 218.254 365.082 220.921 365.082 224.121C365.082 227.187 364.815 229.854 364.282 232.121H372.282C371.749 229.854 371.482 227.187 371.482 224.121C371.482 220.921 371.749 218.254 372.282 216.121H378.282C377.749 213.854 377.482 211.187 377.482 208.121C377.482 204.921 377.749 202.254 378.282 200.121H384.282C383.749 197.854 383.482 195.187 383.482 192.121C383.482 188.921 383.749 186.254 384.282 184.121C383.749 181.854 383.482 179.187 383.482 176.121C383.482 172.921 383.749 170.254 384.282 168.121C383.749 165.854 383.482 163.187 383.482 160.121C383.482 156.921 383.749 154.254 384.282 152.121H400.282C400.815 154.254 401.082 156.921 401.082 160.121C401.082 163.187 400.815 165.854 400.282 168.121Z" fill="#00CCFF"/>
<path fill-rule="evenodd" clip-rule="evenodd" d="M217.175 263.891C217.708 261.624 217.975 258.958 217.975 255.891C217.975 252.691 217.708 250.024 217.175 247.891H197.175C196.641 250.024 196.375 252.691 196.375 255.891C196.375 258.958 196.641 261.624 197.175 263.891H217.175Z" fill="#00CCFF"/>
</svg>

